<svg width="55" height="99" viewBox="0 0 55 99" fill="none" xmlns="http://www.w3.org/2000/svg">
<g clip-path="url(#clip0_313_299)">
<rect width="55" height="99" fill="white"/>
<path d="M-5.5 -6V-5.5M-5.5 -5.5H-6M-5.5 -5.5V5.5M-5.5 -5.5H5.5M-5.5 5.5H-6M-5.5 5.5V16.5M-5.5 5.5H5.5M5.5 -6V-5.5M5.5 -5.5V5.5M5.5 -5.5H16.5M5.5 5.5V16.5M5.5 5.5H16.5M16.5 -6V-5.5M16.5 -5.5V5.5M16.5 -5.5H27.5M16.5 5.5V16.5M16.5 5.5H27.5M27.5 -6V-5.5M27.5 -5.5V5.5M27.5 -5.5H38.5M27.5 5.5V16.5M27.5 5.5H38.5M38.5 -6V-5.5M38.5 -5.5V5.5M38.5 -5.5H49.5M38.5 5.5V16.5M38.5 5.5H49.5M49.5 -6V-5.5M49.5 -5.5H50M49.5 -5.5V5.5M49.5 -5.5H49M49.5 -5.5H60.5M49.5 5.5H50M49.5 5.5V16.5M49.5 5.5H49M49.5 5.5H60.5M-5.5 16.5H-6M-5.5 16.5V27.5M-5.5 16.5H5.5M5.5 16.5V27.5M5.5 16.5H16.5M16.5 16.5V27.5M16.5 16.5H27.5M27.5 16.5V27.5M27.5 16.5H38.5M38.5 16.5V27.5M38.5 16.5H49.5M49.5 16.5H50M49.5 16.5V27.5M49.5 16.5H49M49.5 16.5H60.5M-5.5 27.5H-6M-5.5 27.5V38.5M-5.5 27.5H5.5M5.5 27.5V38.5M5.5 27.5H16.5M16.5 27.5V38.5M16.5 27.5H27.5M27.5 27.5V38.5M27.5 27.5H38.5M38.5 27.5V38.5M38.5 27.5H49.5M49.5 27.5H50M49.5 27.5V38.5M49.5 27.5H49M49.5 27.5H60.5M-5.5 38.5H-6M-5.5 38.5V49.5M-5.5 38.5H5.5M5.5 38.5V49.5M5.5 38.5H16.5M16.5 38.5V49.5M16.5 38.5H27.5M27.5 38.5V49.5M27.5 38.5H38.5M38.5 38.5V49.5M38.5 38.5H49.5M49.5 38.5H50M49.5 38.5V49.5M49.5 38.5H49M49.5 38.5H60.5M-5.5 49.5V50M-5.5 49.5H-6M-5.5 49.5H5.5M-5.5 49.5V49M-5.5 49.5V60.5M5.5 49.5V50M5.5 49.5H16.5M5.5 49.5V49M5.5 49.5V60.5M16.5 49.5V50M16.5 49.5H27.5M16.5 49.5V49M16.5 49.5V60.5M27.5 49.5V50M27.5 49.5H38.5M27.5 49.5V49M27.5 49.5V60.5M38.5 49.5V50M38.5 49.5H49.5M38.5 49.5V49M38.5 49.5V60.5M49.5 49.5V50M49.5 49.5H50M49.5 49.5H49M49.5 49.5H60.5M49.5 49.5V49M49.5 49.5V60.5M60.5 -6V-5.5M60.5 -5.5V5.5M60.5 -5.5H71.5M60.5 5.5V16.5M60.5 5.5H71.5M71.5 -6V-5.5M71.5 -5.5V5.5M71.5 -5.5H82.5M71.5 5.5V16.5M71.5 5.5H82.5M82.5 -6V-5.5M82.5 -5.5V5.5M82.5 -5.5H93.5M82.5 5.5V16.5M82.5 5.5H93.5M93.5 -6V-5.5M93.5 -5.5V5.5M93.5 -5.5H104.5M93.5 5.5V16.5M93.5 5.5H104.5M104.5 -6V-5.5M104.5 -5.5H105M104.5 -5.5V5.5M104.5 5.5H105M104.5 5.5V16.5M60.5 16.5V27.5M60.5 16.5H71.5M71.5 16.5V27.5M71.5 16.5H82.5M82.5 16.5V27.5M82.5 16.5H93.5M93.5 16.5V27.5M93.5 16.5H104.5M104.5 16.5H105M104.5 16.5V27.5M60.5 27.5V38.5M60.5 27.5H71.5M71.5 27.5V38.5M71.5 27.5H82.5M82.5 27.5V38.5M82.5 27.5H93.5M93.5 27.5V38.5M93.5 27.5H104.5M104.5 27.5H105M104.5 27.5V38.5M60.5 38.5V49.5M60.5 38.5H71.5M71.5 38.5V49.5M71.5 38.5H82.5M82.5 38.5V49.5M82.5 38.5H93.5M93.5 38.5V49.5M93.5 38.5H104.5M104.5 38.5H105M104.5 38.5V49.5M60.5 49.5V50M60.5 49.5H71.5M60.5 49.5V49M60.5 49.5V60.5M71.5 49.5V50M71.5 49.5H82.5M71.5 49.5V49M71.5 49.5V60.5M82.5 49.5V50M82.5 49.5H93.5M82.5 49.5V49M82.5 49.5V60.5M93.5 49.5V50M93.5 49.5H104.5M93.5 49.5V49M93.5 49.5V60.5M104.5 49.5V50M104.5 49.5H105M104.5 49.5V49M104.5 49.5V60.5M-5.5 60.5H-6M-5.5 60.5V71.5M-5.5 60.5H5.5M5.5 60.5V71.5M5.5 60.5H16.5M16.5 60.5V71.5M16.5 60.5H27.5M27.5 60.5V71.5M27.5 60.5H38.5M38.5 60.5V71.5M38.5 60.5H49.5M49.5 60.5H50M49.5 60.5V71.5M49.5 60.5H49M49.5 60.5H60.5M-5.5 71.5H-6M-5.5 71.5V82.5M-5.5 71.5H5.5M5.5 71.5V82.5M5.5 71.5H16.5M16.5 71.5V82.5M16.5 71.5H27.5M27.5 71.5V82.5M27.5 71.5H38.5M38.5 71.5V82.5M38.5 71.5H49.5M49.5 71.5H50M49.5 71.5V82.5M49.5 71.5H49M49.5 71.5H60.5M-5.5 82.5H-6M-5.5 82.5V93.5M-5.5 82.5H5.5M5.5 82.5V93.5M5.5 82.5H16.5M16.5 82.5V93.5M16.5 82.5H27.5M27.5 82.5V93.5M27.5 82.5H38.5M38.5 82.5V93.5M38.5 82.5H49.5M49.5 82.5H50M49.5 82.5V93.5M49.5 82.5H49M49.5 82.5H60.5M-5.5 93.5H-6M-5.5 93.5V104.5M-5.5 93.5H5.5M5.5 93.5V104.5M5.5 93.5H16.5M16.5 93.5V104.5M16.5 93.5H27.5M27.5 93.5V104.5M27.5 93.5H38.5M38.5 93.5V104.5M38.5 93.5H49.5M49.5 93.5H50M49.5 93.5V104.5M49.5 93.5H49M49.5 93.5H60.5M-5.5 104.5V105M-5.5 104.5H-6M-5.5 104.5H5.5M5.5 104.5V105M5.5 104.5H16.5M16.5 104.5V105M16.5 104.5H27.5M27.5 104.5V105M27.5 104.5H38.5M38.5 104.5V105M38.5 104.5H49.5M49.5 104.5V105M49.5 104.5H50M49.5 104.5H49M49.5 104.5H60.5M60.5 60.5V71.5M60.5 60.5H71.5M71.5 60.5V71.5M71.5 60.5H82.5M82.5 60.5V71.5M82.5 60.5H93.5M93.5 60.5V71.5M93.5 60.5H104.5M104.5 60.5H105M104.5 60.5V71.5M60.5 71.5V82.5M60.5 71.5H71.5M71.5 71.5V82.5M71.5 71.5H82.5M82.5 71.5V82.5M82.5 71.5H93.5M93.5 71.5V82.5M93.5 71.5H104.5M104.5 71.5H105M104.5 71.5V82.5M60.5 82.5V93.5M60.5 82.5H71.5M71.5 82.5V93.5M71.5 82.5H82.5M82.5 82.5V93.5M82.5 82.5H93.5M93.5 82.5V93.5M93.5 82.5H104.5M104.5 82.5H105M104.5 82.5V93.5M60.5 93.5V104.5M60.5 93.5H71.5M71.5 93.5V104.5M71.5 93.5H82.5M82.5 93.5V104.5M82.5 93.5H93.5M93.5 93.5V104.5M93.5 93.5H104.5M104.5 93.5H105M104.5 93.5V104.5M60.5 104.5V105M60.5 104.5H71.5M71.5 104.5V105M71.5 104.5H82.5M82.5 104.5V105M82.5 104.5H93.5M93.5 104.5V105M93.5 104.5H104.5M104.5 104.5V105M104.5 104.5H105" stroke="#E0E0E0"/>
<path d="M38.5 38.5002L49.5 27.5V16.5L38.5 5.5H16.5L5.5 16.5V27.5L16.5 38.5M38.5 38.5002L49.5 49.5V60.5L38.5 71.5H16.5L5.5 60.5V49.5L16.5 38.5M38.5 38.5002L27.5 38.5H16.5" stroke="black" stroke-width="3"/>
</g>
<defs>
<clipPath id="clip0_313_299">
<rect width="55" height="99" fill="white"/>
</clipPath>
</defs>
</svg>
